<svg xmlns="http://www.w3.org/2000/svg" viewBox="0 0 900 160" width="900" height="160">
  <defs>
    <linearGradient id="ocean" x1="0%" y1="0%" x2="0%" y2="100%">
      <stop offset="0%" style="stop-color:#0a1628;stop-opacity:1" />
      <stop offset="100%" style="stop-color:#001f3f;stop-opacity:1" />
    </linearGradient>
    <linearGradient id="wave1grad" x1="0%" y1="0%" x2="0%" y2="100%">
      <stop offset="0%" style="stop-color:#1e3a5f;stop-opacity:0.9" />
      <stop offset="100%" style="stop-color:#0d2b4a;stop-opacity:0.5" />
    </linearGradient>
    <linearGradient id="wave2grad" x1="0%" y1="0%" x2="0%" y2="100%">
      <stop offset="0%" style="stop-color:#2563eb;stop-opacity:0.6" />
      <stop offset="100%" style="stop-color:#1e40af;stop-opacity:0.3" />
    </linearGradient>
    <linearGradient id="shipbody" x1="0%" y1="0%" x2="0%" y2="100%">
      <stop offset="0%" style="stop-color:#94a3b8" />
      <stop offset="100%" style="stop-color:#475569" />
    </linearGradient>
    <linearGradient id="shipdeck" x1="0%" y1="0%" x2="0%" y2="100%">
      <stop offset="0%" style="stop-color:#cbd5e1" />
      <stop offset="100%" style="stop-color:#94a3b8" />
    </linearGradient>
    <filter id="glow">
      <feGaussianBlur stdDeviation="1.5" result="coloredBlur"/>
      <feMerge><feMergeNode in="coloredBlur"/><feMergeNode in="SourceGraphic"/></feMerge>
    </filter>
  </defs>

  <!-- Ocean background -->
  <rect width="900" height="160" fill="url(#ocean)" rx="12"/>

  <!-- Stars -->
  <g filter="url(#glow)">
    <circle cx="50" cy="18" r="1.2" fill="white" opacity="0.8"/>
    <circle cx="130" cy="10" r="0.9" fill="white" opacity="0.6"/>
    <circle cx="220" cy="22" r="1.1" fill="white" opacity="0.7"/>
    <circle cx="350" cy="8" r="1.0" fill="white" opacity="0.5"/>
    <circle cx="480" cy="15" r="1.3" fill="white" opacity="0.8"/>
    <circle cx="600" cy="7" r="0.8" fill="white" opacity="0.6"/>
    <circle cx="720" cy="20" r="1.1" fill="white" opacity="0.7"/>
    <circle cx="830" cy="12" r="1.0" fill="white" opacity="0.5"/>
    <circle cx="870" cy="25" r="0.9" fill="white" opacity="0.6"/>
  </g>

  <!-- Moon -->
  <circle cx="820" cy="22" r="12" fill="#fbbf24" opacity="0.9"/>
  <circle cx="826" cy="18" r="10" fill="#0a1628" opacity="1"/>

  <!-- Wave 1 (back layer) -->
  <g>
    <animateTransform attributeName="transform" type="translate" from="0,0" to="-180,0" dur="6s" repeatCount="indefinite"/>
    <path d="M0,95 C60,82 120,108 180,95 C240,82 300,108 360,95 C420,82 480,108 540,95 C600,82 660,108 720,95 C780,82 840,108 900,95 C960,82 1020,108 1080,95 L1080,160 L0,160 Z" fill="url(#wave1grad)" opacity="0.7"/>
  </g>

  <!-- Wave 2 (front layer) -->
  <g>
    <animateTransform attributeName="transform" type="translate" from="-900,0" to="0,0" dur="4s" repeatCount="indefinite"/>
    <path d="M-900,108 C-850,98 -800,118 -750,108 C-700,98 -650,118 -600,108 C-550,98 -500,118 -450,108 C-400,98 -350,118 -300,108 C-250,98 -200,118 -150,108 C-100,98 -50,118 0,108 C50,98 100,118 150,108 C200,98 250,118 300,108 C350,98 400,118 450,108 C500,98 550,118 600,108 C650,98 700,118 750,108 C800,98 850,118 900,108 L900,160 L-900,160 Z" fill="url(#wave2grad)" opacity="0.85"/>
  </g>

  <!-- SHIP GROUP - sails left to right -->
  <g>
    <animateTransform attributeName="transform" type="translate" from="-160,0" to="1060,0" dur="14s" repeatCount="indefinite"/>
    <!-- Hull -->
    <polygon points="0,88 140,88 130,100 10,100" fill="url(#shipbody)"/>
    <!-- Deck -->
    <rect x="10" y="70" width="120" height="18" fill="url(#shipdeck)" rx="2"/>
    <!-- Bridge -->
    <rect x="70" y="50" width="45" height="20" fill="#e2e8f0" rx="3"/>
    <!-- Bridge windows -->
    <rect x="75" y="54" width="8" height="6" fill="#60a5fa" rx="1" opacity="0.9"/>
    <rect x="88" y="54" width="8" height="6" fill="#60a5fa" rx="1" opacity="0.9"/>
    <rect x="101" y="54" width="8" height="6" fill="#60a5fa" rx="1" opacity="0.9"/>
    <!-- Funnel -->
    <rect x="88" y="38" width="12" height="14" fill="#dc2626" rx="2"/>
    <rect x="86" y="36" width="16" height="5" fill="#b91c1c" rx="1"/>
    <!-- Smoke puff 1 -->
    <circle cx="94" cy="30" r="4" fill="#94a3b8" opacity="0.5">
      <animate attributeName="cy" values="30;15;5" dur="2s" repeatCount="indefinite"/>
      <animate attributeName="opacity" values="0.5;0.3;0" dur="2s" repeatCount="indefinite"/>
      <animate attributeName="r" values="4;7;10" dur="2s" repeatCount="indefinite"/>
    </circle>
    <!-- Smoke puff 2 -->
    <circle cx="96" cy="26" r="3" fill="#94a3b8" opacity="0.4">
      <animate attributeName="cy" values="26;12;2" dur="2.5s" repeatCount="indefinite"/>
      <animate attributeName="opacity" values="0.4;0.2;0" dur="2.5s" repeatCount="indefinite"/>
      <animate attributeName="r" values="3;6;9" dur="2.5s" repeatCount="indefinite"/>
    </circle>
    <!-- Mast -->
    <line x1="30" y1="70" x2="30" y2="42" stroke="#64748b" stroke-width="2"/>
    <!-- Flag -->
    <polygon points="30,42 48,48 30,54" fill="#2563eb" opacity="0.9"/>
    <!-- Cargo -->
    <rect x="15" y="62" width="22" height="10" fill="#16a34a" rx="1"/>
    <rect x="40" y="62" width="22" height="10" fill="#dc2626" rx="1"/>
    <!-- Wake trail -->
    <ellipse cx="-12" cy="97" rx="18" ry="4" fill="white" opacity="0.35"/>
    <ellipse cx="-38" cy="97" rx="12" ry="3" fill="white" opacity="0.20"/>
    <ellipse cx="-60" cy="97" rx="8" ry="2" fill="white" opacity="0.10"/>
  </g>
</svg>
